<svg width="1207" height="730" viewBox="0 0 1207 730" fill="none" xmlns="http://www.w3.org/2000/svg">
<g clip-path="url(#clip0_0_1)">
<path d="M240.92 589.95L240.94 571.36L240.76 539.17L240.9 520.64L240.92 513.77L240.95 495.72L240.74 439.78C240.993 439.407 241.11 438.813 241.09 438C240.97 434.047 240.917 429.13 240.93 423.25C240.937 422.803 240.867 422.373 240.72 421.96L240.87 421.66C240.943 421.507 240.983 421.34 240.99 421.16L241.24 383.58C245.48 384.08 249.5 383.89 253.3 383.01C292.013 378.957 323.69 362.723 348.33 334.31C369.943 309.383 381.427 280.067 382.78 246.36C382.96 241.84 382.857 236.767 382.47 231.14C382.003 224.393 381.43 219.347 380.75 216C372.137 173.813 349.957 141.743 314.21 119.79C296.097 108.663 275.683 102.077 252.97 100.03C249.43 98.8967 245.55 98.7733 241.33 99.66C241.317 99.6733 241.303 99.6833 241.29 99.69L241.03 3.31C241.03 2.93667 241.217 2.75334 241.59 2.76C276.263 3.07334 308.78 10.1233 339.14 23.91C426.83 63.72 482.52 152.06 479.47 248.44C478.55 277.72 469.42 307.17 456.56 334.58C439.87 370.16 416.85 403.84 391.89 434.93C355.44 480.36 313.84 523.55 272.41 567.09C262.863 577.117 252.553 588.33 241.48 600.73C241.153 601.097 240.99 601.033 240.99 600.54L240.92 589.95Z" fill="#E3000E"/>
<path d="M222.75 103.13C222.76 108.34 219.8 114.82 213.82 114.96C207.93 115.11 204.54 108.63 204.54 103.61C204.513 68.93 204.507 36.3033 204.52 5.73001C204.52 5.6448 204.551 5.56257 204.609 5.4996C204.666 5.43664 204.745 5.39752 204.83 5.39001L221.97 3.41001C222.483 3.35001 222.74 3.58001 222.74 4.10001C222.7 36.72 222.703 69.73 222.75 103.13Z" fill="#0055A5"/>
<path d="M240.54 152.23L240.94 170.39C213.907 170.423 186.917 170.437 159.97 170.43C156.257 170.43 153.77 170.133 152.51 169.54C149.27 168.03 147.36 164.81 147.35 161.3C147.303 137.987 147.203 114.577 147.05 91.07C147.043 90.6167 146.823 90.33 146.39 90.21C119.99 82.79 112.31 49.07 132.26 30.58C147.58 16.36 171.56 18.83 184.08 35.18C199.41 55.2 189.14 83.08 165.78 90.25C165.393 90.3633 165.203 90.62 165.21 91.02L165.42 151.7C165.42 151.846 165.478 151.986 165.581 152.089C165.684 152.192 165.824 152.25 165.97 152.25L240.54 152.23ZM173.06 56.42C173.06 51.9193 171.272 47.6029 168.09 44.4204C164.907 41.2379 160.591 39.45 156.09 39.45C151.589 39.45 147.273 41.2379 144.09 44.4204C140.908 47.6029 139.12 51.9193 139.12 56.42C139.12 60.9207 140.908 65.2371 144.09 68.4196C147.273 71.6021 151.589 73.39 156.09 73.39C160.591 73.39 164.907 71.6021 168.09 68.4196C171.272 65.2371 173.06 60.9207 173.06 56.42Z" fill="#0055A5"/>
<path d="M240.93 204.31L240.94 222.5C190.84 222.52 140.767 222.52 90.72 222.5C87.2067 222.493 84.82 222.143 83.56 221.45C80.84 219.94 79.02 217.01 79 213.86C78.8267 189.98 78.7233 165.953 78.69 141.78C78.69 141.44 78.5267 141.22 78.2 141.12C65.1933 137.187 56.8433 128.823 53.15 116.03C50.53 106.96 51.93 94.54 58.91 87.02C62.38 83.29 65.39 78.72 69.97 76.27C90.04 65.53 114.03 75.33 120.75 96.82C123.44 105.43 122.51 115.33 118.24 123.34C113.753 131.78 106.75 137.587 97.23 140.76C97.0879 140.806 96.964 140.897 96.876 141.019C96.788 141.141 96.7404 141.289 96.74 141.44L97.06 203.77C97.06 204.103 97.23 204.27 97.57 204.27L240.93 204.31ZM104.09 107.01C104.09 102.507 102.301 98.1877 99.1167 95.0033C95.9323 91.819 91.6134 90.03 87.11 90.03C82.6066 90.03 78.2877 91.819 75.1033 95.0033C71.919 98.1877 70.13 102.507 70.13 107.01C70.13 111.513 71.919 115.832 75.1033 119.017C78.2877 122.201 82.6066 123.99 87.11 123.99C91.6134 123.99 95.9323 122.201 99.1167 119.017C102.301 115.832 104.09 111.513 104.09 107.01Z" fill="#0055A5"/>
<path d="M252.97 100.03L241.33 99.66C245.55 98.7734 249.43 98.8967 252.97 100.03Z" fill="#B1B3B3"/>
<path d="M241.29 99.69C241.303 99.6834 241.317 99.6734 241.33 99.66L252.97 100.03C275.683 102.077 296.097 108.663 314.21 119.79C349.957 141.743 372.137 173.813 380.75 216C381.43 219.347 382.003 224.393 382.47 231.14C382.857 236.767 382.96 241.84 382.78 246.36C381.427 280.067 369.943 309.383 348.33 334.31C323.69 362.723 292.013 378.957 253.3 383.01L241.23 383.21L240.97 326.77C241.05 318.823 241.047 313.067 240.96 309.5C240.96 309.3 240.82 309.07 240.54 308.81C240.627 308.77 240.713 308.717 240.8 308.65C240.853 308.61 240.895 308.557 240.925 308.497C240.954 308.436 240.97 308.369 240.97 308.3L240.93 274.69L240.92 257.86C240.92 257.58 240.863 257.313 240.75 257.06L240.52 256.5C240.493 256.627 240.563 256.643 240.73 256.55C240.85 256.483 240.91 256.383 240.91 256.25L240.94 222.5L240.93 204.31L240.94 170.39L240.54 152.23C240.573 152.397 240.663 152.397 240.81 152.23C240.917 152.103 240.97 151.953 240.97 151.78L241.29 99.69ZM264.38 185.88C256.44 200.74 255.75 215.27 262.31 229.47C271.52 249.41 293.03 259.66 314.19 255.21C330.28 251.83 343.49 239.78 348.45 224.44C357.67 195.93 339 167.49 309.44 163.65C308.233 163.137 307.11 162.407 306.07 161.46C290.27 147.01 264.76 157.16 263.94 178.74C263.84 181.18 264.25 183.48 264.38 185.88Z" fill="#1A1A18"/>
<path d="M566.37 169.35C565.27 180.44 573.32 185.97 582.06 190.24C593.03 195.6 603.32 200.5 612.59 207.8C624.73 217.35 627.18 232.72 624.89 247.2C622.757 260.693 615.707 270.79 603.74 277.49C583.89 288.59 556.98 284.57 536.01 278.03C535.737 277.943 535.613 277.757 535.64 277.47L538.14 251.83C538.143 251.774 538.161 251.72 538.191 251.673C538.221 251.626 538.262 251.586 538.311 251.559C538.361 251.531 538.417 251.516 538.474 251.514C538.531 251.513 538.588 251.525 538.64 251.55C550.44 257.4 564.11 261.42 577.04 259.93C584.49 259.07 591.08 254.69 592.8 247C595.3 235.83 585.2 228.27 576.58 223.21C570.32 219.53 560.15 214.93 552.26 209.68C546.77 206.04 541.52 201.61 538.43 195.73C534.25 187.76 533.48 178.15 534.61 169.23C537.18 148.94 551.72 136.56 571.16 133.11C586.28 130.42 602.23 132.3 617.21 136.64C617.417 136.7 617.513 136.837 617.5 137.05L615.61 162.7C615.577 163.147 615.357 163.28 614.95 163.1C605.697 158.973 596.603 156.727 587.67 156.36C579.05 156.01 567.42 158.81 566.37 169.35Z" fill="#0055A5"/>
<path d="M751 223.5C751 251.77 743.32 278.21 711.45 283.28C696.37 285.68 678.23 284.7 665.22 276.21C648.98 265.61 644.85 244.67 644.83 225.7C644.79 194.7 644.783 164.493 644.81 135.08C644.81 134.66 645.023 134.45 645.45 134.45H678.26C678.707 134.45 678.93 134.673 678.93 135.12C678.883 167.473 678.897 200.113 678.97 233.04C678.983 238.387 679.763 243.54 681.31 248.5C684.55 258.9 695.47 260.8 704.75 258.79C711.86 257.25 715.59 252.27 717.08 245.4C718.14 240.513 718.67 235.307 718.67 229.78C718.677 198.233 718.677 166.59 718.67 134.85C718.67 134.583 718.803 134.45 719.07 134.45H750.7C750.777 134.45 750.851 134.482 750.905 134.538C750.959 134.594 750.99 134.67 750.99 134.75C751.003 164.317 751.007 193.9 751 223.5Z" fill="#0055A5"/>
<path d="M810.5 228.73V281.5C810.5 281.833 810.333 282 810 282H777.21C776.85 282 776.67 281.82 776.67 281.46V135.01C776.67 134.65 776.85 134.47 777.21 134.47C792.603 134.39 807.273 134.42 821.22 134.56C828.88 134.64 837.62 135.39 844.6 137.86C867.7 146.02 875.08 169.13 871.53 192.02C868.863 209.2 858.947 220.233 841.78 225.12C832.17 227.86 821.63 228.12 811.25 227.99C810.75 227.983 810.5 228.23 810.5 228.73ZM810.45 159.45L810.53 202.65C810.533 202.757 810.577 202.859 810.654 202.934C810.73 203.008 810.833 203.05 810.94 203.05L821.64 203.04C823.967 203.036 826.27 202.573 828.417 201.678C830.565 200.783 832.516 199.473 834.158 197.822C835.8 196.172 837.1 194.214 837.986 192.06C838.872 189.907 839.325 187.599 839.32 185.27L839.3 176.71C839.289 172.009 837.415 167.506 834.088 164.188C830.762 160.871 826.255 159.012 821.56 159.02L810.86 159.03C810.805 159.03 810.751 159.041 810.701 159.062C810.65 159.083 810.605 159.114 810.566 159.154C810.528 159.193 810.498 159.239 810.478 159.29C810.458 159.341 810.449 159.395 810.45 159.45Z" fill="#0055A5"/>
<path d="M923.99 257.02H975.53C975.663 257.02 975.79 257.073 975.884 257.166C975.977 257.26 976.03 257.387 976.03 257.52L976.02 281.5C976.02 281.633 975.967 281.76 975.874 281.854C975.78 281.947 975.653 282 975.52 282H890.16C890.027 282 889.9 281.947 889.806 281.854C889.713 281.76 889.66 281.633 889.66 281.5L889.65 134.95C889.65 134.817 889.703 134.69 889.796 134.596C889.89 134.503 890.017 134.45 890.15 134.45L973.17 134.46C973.303 134.46 973.43 134.513 973.524 134.606C973.617 134.7 973.67 134.827 973.67 134.96V158.52C973.67 158.653 973.617 158.78 973.524 158.874C973.43 158.967 973.303 159.02 973.17 159.02L924 159.03C923.867 159.03 923.74 159.083 923.646 159.176C923.553 159.27 923.5 159.397 923.5 159.53V193.83C923.5 193.963 923.553 194.09 923.646 194.184C923.74 194.277 923.867 194.33 924 194.33H970.5C970.633 194.33 970.76 194.383 970.854 194.476C970.947 194.57 971 194.697 971 194.83L970.99 218.54C970.99 218.673 970.937 218.8 970.844 218.894C970.75 218.987 970.623 219.04 970.49 219.04L924 219.05C923.867 219.05 923.74 219.103 923.646 219.196C923.553 219.29 923.5 219.417 923.5 219.55L923.49 256.52C923.49 256.653 923.543 256.78 923.636 256.874C923.73 256.967 923.857 257.02 923.99 257.02Z" fill="#0055A5"/>
<path d="M1069.13 208.29C1068.52 208.437 1068.51 208.607 1069.11 208.8C1079.67 212.12 1082.9 220.5 1086.03 230.08C1091.41 246.533 1096.99 263.7 1102.76 281.58C1102.78 281.628 1102.78 281.679 1102.77 281.728C1102.76 281.778 1102.75 281.825 1102.72 281.866C1102.69 281.907 1102.65 281.94 1102.6 281.964C1102.56 281.987 1102.51 281.999 1102.46 282L1068.48 282.01C1068.34 282.011 1068.21 281.966 1068.1 281.883C1067.99 281.8 1067.91 281.683 1067.87 281.55C1063.48 265.763 1059.18 250.49 1054.96 235.73C1054.48 234.057 1053.72 232.15 1052.67 230.01C1048.4 221.26 1040.96 221.19 1032.37 221.58C1032.25 221.585 1032.14 221.637 1032.06 221.725C1031.98 221.812 1031.93 221.929 1031.93 222.05L1031.88 281.37C1031.88 281.537 1031.81 281.697 1031.7 281.816C1031.58 281.934 1031.42 282 1031.25 282H999.21C998.843 282 998.66 281.82 998.66 281.46V135.01C998.66 134.63 998.85 134.44 999.23 134.44C1015.38 134.48 1030.46 134.447 1044.47 134.34C1056.19 134.253 1066.32 135.907 1074.87 139.3C1084.45 143.1 1090.7 149.633 1093.61 158.9C1097.82 172.32 1096.79 189.27 1085.87 199.5C1081.33 203.753 1075.75 206.683 1069.13 208.29ZM1031.97 159.37L1031.85 196.45C1031.85 196.528 1031.88 196.603 1031.93 196.659C1031.99 196.715 1032.06 196.747 1032.14 196.75L1045.26 196.79C1047.54 196.799 1049.79 196.394 1051.9 195.6C1054.01 194.806 1055.92 193.638 1057.54 192.162C1059.16 190.687 1060.44 188.933 1061.32 187C1062.2 185.068 1062.65 182.995 1062.66 180.9L1062.68 175.12C1062.69 170.891 1060.88 166.828 1057.64 163.826C1054.4 160.823 1050 159.127 1045.4 159.11L1032.28 159.07C1032.24 159.069 1032.2 159.075 1032.16 159.09C1032.12 159.104 1032.09 159.126 1032.06 159.154C1032.03 159.182 1032.01 159.216 1031.99 159.253C1031.98 159.29 1031.97 159.33 1031.97 159.37Z" fill="#0055A5"/>
<path d="M309.44 163.65C308.873 163.503 308.673 163.733 308.84 164.34C308.853 164.392 308.877 164.44 308.91 164.48C317.64 175.91 315.01 191.84 303.61 200.16C297.17 204.86 288.52 206.08 281.14 203.64C274.547 201.473 269.68 197.103 266.54 190.53C265.82 189.023 265.1 187.473 264.38 185.88C264.25 183.48 263.84 181.18 263.94 178.74C264.76 157.16 290.27 147.01 306.07 161.46C307.11 162.407 308.233 163.137 309.44 163.65Z" fill="#B1B3B3"/>
<path d="M240.52 256.5L240.75 257.06C240.863 257.313 240.92 257.58 240.92 257.86L240.93 274.69L72.01 274.71C71.6434 274.71 71.4067 274.883 71.3 275.23C67.8067 286.097 61.0267 293.69 50.96 298.01C34.05 305.27 11.91 297.41 5.37003 279.33C3.91669 275.31 3.05003 270.87 2.77003 266.01C2.37003 258.95 3.85669 252.793 7.23003 247.54C24.18 221.12 61.74 226.32 71.29 255.97C71.41 256.33 71.66 256.51 72.04 256.51L240.52 256.5ZM54.39 265.6C54.39 261.099 52.6021 256.783 49.4196 253.6C46.2371 250.418 41.9207 248.63 37.42 248.63C32.9193 248.63 28.6029 250.418 25.4204 253.6C22.2379 256.783 20.45 261.099 20.45 265.6C20.45 270.101 22.2379 274.417 25.4204 277.6C26.9962 279.175 28.867 280.425 30.9259 281.278C32.9848 282.131 35.1915 282.57 37.42 282.57C41.9207 282.57 46.2371 280.782 49.4196 277.6C52.6021 274.417 54.39 270.101 54.39 265.6Z" fill="#0055A5"/>
<path d="M708.15 325.21C709.39 337.6 707.35 351.81 696.73 359.02C690.76 363.06 682.43 363.86 675.49 362.23C662.74 359.25 657.25 347.83 656.44 335.3C655.43 319.53 660.33 301.4 678.85 299.56C696.38 297.81 706.5 308.67 708.15 325.21ZM691.37 317.07C689.71 311.87 684.95 308.36 679.26 310.37C670.34 313.51 670.78 331.84 671.94 339.73C672.72 345 675.13 351.43 680.93 352.45C686.46 353.42 690.5 348.94 691.79 344.09C694.277 334.73 694.137 325.723 691.37 317.07Z" fill="#0055A5"/>
<path d="M994.65 360.36L1004.79 373.47C1005.1 373.863 1005 374.06 1004.5 374.06L991 374.08C990.56 374.08 990.21 373.9 989.95 373.54L982.81 363.45C982.63 363.197 982.383 363.067 982.07 363.06C963.58 362.76 955.9 350.08 955.34 333.45C954.7 314.71 962.59 297.59 984.35 299.48C1006.06 301.37 1009.86 325.23 1006.33 342.26C1004.72 350.027 1000.87 355.787 994.8 359.54C994.447 359.76 994.397 360.033 994.65 360.36ZM978.27 310.36C969.59 313.88 969.87 330.2 970.63 337.67C971.19 343.11 973.13 350.26 978.75 352.16C986.1 354.64 990.36 347.36 991.5 341.47C992.953 333.983 992.857 326.717 991.21 319.67C989.86 313.91 985.2 307.54 978.27 310.36Z" fill="#0055A5"/>
<path d="M571.13 318.01V361.56C571.13 361.853 570.983 362 570.69 362H559.44C559.342 362 559.248 361.961 559.178 361.892C559.109 361.822 559.07 361.728 559.07 361.63L559.06 300.8C559.06 300.75 559.07 300.701 559.089 300.655C559.108 300.608 559.136 300.567 559.171 300.531C559.207 300.496 559.248 300.468 559.295 300.449C559.341 300.43 559.39 300.42 559.44 300.42L574.78 300.43C575.173 300.43 575.443 300.61 575.59 300.97L593.16 343.48C593.687 344.767 593.95 344.713 593.95 343.32V301C593.95 300.633 594.133 300.45 594.5 300.45L605.64 300.41C605.735 300.41 605.827 300.448 605.895 300.515C605.962 300.583 606 300.675 606 300.77V361.26C606 361.462 605.92 361.655 605.777 361.797C605.635 361.94 605.442 362.02 605.24 362.02L590.17 362.01C590.043 362.01 589.919 361.973 589.814 361.904C589.709 361.834 589.628 361.736 589.58 361.62L571.53 317.93C571.51 317.887 571.476 317.853 571.435 317.832C571.393 317.81 571.345 317.804 571.299 317.813C571.253 317.822 571.211 317.847 571.18 317.882C571.15 317.918 571.132 317.963 571.13 318.01Z" fill="#0055A5"/>
<path d="M631.68 326H649.56C649.618 326 649.675 326.011 649.728 326.033C649.782 326.056 649.83 326.088 649.871 326.129C649.912 326.17 649.944 326.218 649.966 326.272C649.989 326.325 650 326.382 650 326.44L649.99 335.89C649.99 336.007 649.944 336.119 649.861 336.201C649.779 336.284 649.667 336.33 649.55 336.33L631.68 336.34C631.563 336.34 631.451 336.386 631.369 336.469C631.286 336.551 631.24 336.663 631.24 336.78V361.56C631.24 361.677 631.194 361.789 631.111 361.871C631.029 361.954 630.917 362 630.8 362H617.51C617.393 362 617.281 361.954 617.199 361.871C617.116 361.789 617.07 361.677 617.07 361.56L617.06 300.86C617.06 300.743 617.106 300.631 617.189 300.549C617.271 300.466 617.383 300.42 617.5 300.42L650.24 300.43C650.357 300.43 650.469 300.476 650.551 300.559C650.634 300.641 650.68 300.753 650.68 300.87L650.65 310.28C650.65 310.397 650.604 310.509 650.521 310.591C650.439 310.674 650.327 310.72 650.21 310.72L631.68 310.7C631.563 310.7 631.451 310.746 631.369 310.829C631.286 310.911 631.24 311.023 631.24 311.14V325.56C631.24 325.677 631.286 325.789 631.369 325.871C631.451 325.954 631.563 326 631.68 326Z" fill="#0055A5"/>
<path d="M747.16 331.71C749.78 332.663 751.63 334.723 752.71 337.89C755.357 345.663 757.943 353.567 760.47 361.6C760.484 361.647 760.487 361.696 760.479 361.744C760.47 361.792 760.451 361.837 760.421 361.876C760.392 361.915 760.354 361.947 760.31 361.968C760.267 361.99 760.219 362.001 760.17 362L746.75 362.02C746.556 362.02 746.367 361.957 746.212 361.842C746.057 361.726 745.944 361.564 745.89 361.38C744.497 356.56 743.16 351.74 741.88 346.92C741.247 344.553 740.453 342.25 739.5 340.01C738.493 337.65 735.913 336.553 731.76 336.72C731.253 336.74 731 337.003 731 337.51V361.5C731 361.633 730.947 361.76 730.854 361.854C730.76 361.947 730.633 362 730.5 362L717.43 362.01C717.332 362.01 717.238 361.971 717.168 361.902C717.099 361.832 717.06 361.738 717.06 361.64V300.96C717.06 300.819 717.115 300.685 717.212 300.585C717.31 300.486 717.442 300.43 717.58 300.43C724.293 300.417 730.793 300.403 737.08 300.39C749.38 300.36 759.35 305.39 757.47 319.51C756.67 325.55 752.87 329.23 747.16 331.15C746.627 331.323 746.627 331.51 747.16 331.71ZM730.99 311.01L731.01 326.13C731.01 326.21 731.042 326.286 731.098 326.342C731.154 326.398 731.23 326.43 731.31 326.43L736.5 326.42C738.444 326.417 740.307 325.708 741.68 324.45C743.052 323.192 743.822 321.487 743.82 319.71V317.39C743.819 316.51 743.628 315.639 743.259 314.827C742.889 314.014 742.348 313.276 741.667 312.655C740.985 312.034 740.176 311.541 739.286 311.206C738.396 310.87 737.443 310.699 736.48 310.7L731.29 310.71C731.21 310.71 731.134 310.742 731.078 310.798C731.022 310.854 730.99 310.93 730.99 311.01Z" fill="#0055A5"/>
<path d="M815.75 312.05C815.757 312.002 815.744 311.954 815.715 311.915C815.686 311.877 815.643 311.852 815.595 311.845C815.547 311.838 815.499 311.851 815.46 311.88C815.422 311.909 815.397 311.952 815.39 312L801.45 361.6C801.419 361.715 801.35 361.816 801.255 361.889C801.159 361.961 801.041 362 800.92 362H793.24C792.8 362 792.52 361.787 792.4 361.36L778.8 313.57C778.28 311.73 778.02 311.767 778.02 313.68L778.01 361.37C778.01 361.537 777.944 361.697 777.826 361.815C777.707 361.934 777.547 362 777.38 362L766.8 362.01C766.612 362.01 766.431 361.935 766.298 361.802C766.165 361.669 766.09 361.488 766.09 361.3L766.05 300.94C766.05 300.6 766.22 300.43 766.56 300.43L785.64 300.42C785.88 300.42 786.03 300.537 786.09 300.77L796.65 340.3C796.897 341.213 797.143 341.213 797.39 340.3L808.04 300.99C808.14 300.617 808.383 300.43 808.77 300.43H827.72C828.073 300.43 828.25 300.61 828.25 300.97V361.5C828.25 361.833 828.083 362 827.75 362H816.25C815.917 362 815.75 361.833 815.75 361.5V312.05Z" fill="#0055A5"/>
<path d="M1036.25 352.41C1045.21 353.85 1046.58 347.14 1046.58 340.19C1046.57 327.077 1046.56 314.017 1046.55 301.01C1046.55 300.617 1046.75 300.42 1047.14 300.42L1059.47 300.43C1059.83 300.43 1060.01 300.61 1060.01 300.97C1060.1 319.45 1060.07 333.047 1059.91 341.76C1059.86 344.387 1059.28 347.377 1058.15 350.73C1054.27 362.29 1041.57 364.46 1031.14 362.33C1019.56 359.96 1015.82 350.12 1015.79 339.5C1015.75 326.627 1015.74 313.78 1015.76 300.96C1015.77 300.613 1015.94 300.44 1016.29 300.44L1029.37 300.42C1029.8 300.42 1030.02 300.64 1030.02 301.08C1029.97 315.853 1029.98 329.413 1030.04 341.76C1030.06 346.3 1030.98 351.56 1036.25 352.41Z" fill="#0055A5"/>
<path d="M1085.24 336.11V351.19C1085.24 351.288 1085.28 351.382 1085.35 351.452C1085.42 351.521 1085.51 351.56 1085.61 351.56L1106.83 351.59C1106.88 351.59 1106.93 351.6 1106.97 351.618C1107.02 351.637 1107.06 351.664 1107.09 351.698C1107.13 351.733 1107.15 351.774 1107.17 351.818C1107.19 351.863 1107.2 351.911 1107.2 351.96L1107.18 361.63C1107.18 361.728 1107.14 361.822 1107.07 361.892C1107 361.961 1106.91 362 1106.81 362H1071.44C1071.34 362 1071.25 361.961 1071.18 361.892C1071.11 361.822 1071.07 361.728 1071.07 361.63L1071.06 300.79C1071.06 300.692 1071.1 300.598 1071.17 300.528C1071.24 300.459 1071.33 300.42 1071.43 300.42L1105.82 300.43C1105.92 300.43 1106.01 300.469 1106.08 300.538C1106.15 300.608 1106.19 300.702 1106.19 300.8V310.34C1106.19 310.438 1106.15 310.532 1106.08 310.602C1106.01 310.671 1105.92 310.71 1105.82 310.71L1085.61 310.7C1085.51 310.7 1085.42 310.739 1085.35 310.808C1085.28 310.878 1085.24 310.972 1085.24 311.07V325.08C1085.24 325.178 1085.28 325.272 1085.35 325.342C1085.42 325.411 1085.51 325.45 1085.61 325.45H1104.66C1104.76 325.45 1104.85 325.489 1104.92 325.558C1104.99 325.628 1105.03 325.722 1105.03 325.82V335.38C1105.03 335.478 1104.99 335.572 1104.92 335.642C1104.85 335.711 1104.76 335.75 1104.66 335.75L1085.61 335.74C1085.51 335.74 1085.42 335.779 1085.35 335.848C1085.28 335.918 1085.24 336.012 1085.24 336.11Z" fill="#0055A5"/>
<path d="M547.83 300.42H534.49C534.258 300.42 534.07 300.608 534.07 300.84V361.58C534.07 361.812 534.258 362 534.49 362H547.83C548.062 362 548.25 361.812 548.25 361.58V300.84C548.25 300.608 548.062 300.42 547.83 300.42Z" fill="#0055A5"/>
<path d="M870.11 348.25H850.89C850.806 348.249 850.724 348.276 850.657 348.327C850.59 348.378 850.542 348.449 850.52 348.53L846.96 361.72C846.938 361.801 846.89 361.872 846.823 361.923C846.756 361.974 846.674 362.001 846.59 362H833.66C833.6 362 833.541 361.986 833.487 361.958C833.434 361.931 833.387 361.891 833.352 361.842C833.317 361.793 833.294 361.737 833.285 361.677C833.276 361.618 833.281 361.557 833.3 361.5L853.06 300.7C853.086 300.623 853.135 300.556 853.202 300.509C853.269 300.462 853.349 300.438 853.43 300.44L869.23 300.43C869.311 300.431 869.39 300.457 869.454 300.506C869.519 300.555 869.567 300.623 869.59 300.7L888.46 361.51C888.477 361.567 888.481 361.628 888.47 361.687C888.46 361.746 888.436 361.801 888.4 361.849C888.363 361.897 888.317 361.935 888.263 361.962C888.209 361.988 888.15 362.001 888.09 362H874.26C874.178 361.999 874.098 361.971 874.033 361.92C873.968 361.87 873.922 361.799 873.9 361.72L870.47 348.53C870.448 348.451 870.402 348.38 870.337 348.33C870.272 348.279 870.192 348.251 870.11 348.25ZM861.39 313.62C861.373 313.548 861.333 313.485 861.276 313.438C861.218 313.392 861.147 313.367 861.074 313.366C861 313.364 860.929 313.388 860.87 313.432C860.811 313.476 860.769 313.539 860.75 313.61L853.86 337.14C853.846 337.189 853.844 337.241 853.853 337.292C853.863 337.342 853.884 337.389 853.915 337.43C853.946 337.471 853.986 337.504 854.032 337.526C854.078 337.549 854.129 337.56 854.18 337.56L867.21 337.6C867.26 337.6 867.31 337.589 867.355 337.567C867.4 337.545 867.439 337.513 867.47 337.473C867.501 337.434 867.522 337.387 867.533 337.338C867.543 337.289 867.542 337.239 867.53 337.19L861.39 313.62Z" fill="#0055A5"/>
<path d="M885.52 311.07L885.51 300.81C885.51 300.709 885.55 300.613 885.621 300.541C885.693 300.47 885.789 300.43 885.89 300.43H926.12C926.221 300.43 926.317 300.47 926.389 300.541C926.46 300.613 926.5 300.709 926.5 300.81V311.06C926.5 311.161 926.46 311.257 926.389 311.329C926.317 311.4 926.221 311.44 926.12 311.44L913.5 311.43C913.399 311.43 913.303 311.47 913.231 311.541C913.16 311.613 913.12 311.709 913.12 311.81V361.62C913.12 361.721 913.08 361.817 913.009 361.889C912.937 361.96 912.841 362 912.74 362H899.31C899.209 362 899.113 361.96 899.041 361.889C898.97 361.817 898.93 361.721 898.93 361.62V311.81C898.93 311.709 898.89 311.613 898.819 311.541C898.747 311.47 898.651 311.43 898.55 311.43L885.9 311.45C885.799 311.45 885.703 311.41 885.631 311.339C885.56 311.267 885.52 311.171 885.52 311.07Z" fill="#0055A5"/>
<path d="M946.83 300.43H933.47C933.244 300.43 933.06 300.614 933.06 300.84V361.6C933.06 361.826 933.244 362.01 933.47 362.01H946.83C947.056 362.01 947.24 361.826 947.24 361.6V300.84C947.24 300.614 947.056 300.43 946.83 300.43Z" fill="#0055A5"/>
<path d="M240.54 308.81C240.82 309.07 240.96 309.3 240.96 309.5C241.047 313.067 241.05 318.823 240.97 326.77L178.34 326.76C178.206 326.76 178.078 326.812 177.983 326.906C177.887 326.999 177.833 327.126 177.83 327.26C177.597 341.153 177.433 354.893 177.34 368.48C177.3 375.01 172.6 378.04 166.57 378.02C150.323 377.98 133.83 377.973 117.09 378C116.73 378 116.493 378.173 116.38 378.52C112.707 389.3 105.76 396.76 95.54 400.9C77.83 408.07 57.25 399.14 50.16 381.3C42.07 360.96 54.08 337.99 75.76 333.7C92.16 330.45 107.7 338.77 114.81 353.68C115.66 355.46 116.14 357.33 116.74 359.2C116.853 359.567 117.107 359.75 117.5 359.75L158.74 359.74C159.127 359.74 159.323 359.55 159.33 359.17C159.497 347.81 159.637 334.13 159.75 318.13C159.78 312.47 163.68 308.59 169.5 308.59C192.96 308.59 216.417 308.607 239.87 308.64C240.117 308.64 240.34 308.697 240.54 308.81ZM99.71 368.16C99.71 363.659 97.9221 359.343 94.7396 356.16C91.5571 352.978 87.2407 351.19 82.74 351.19C78.2393 351.19 73.9229 352.978 70.7404 356.16C67.5579 359.343 65.77 363.659 65.77 368.16C65.77 372.661 67.5579 376.977 70.7404 380.16C73.9229 383.342 78.2393 385.13 82.74 385.13C87.2407 385.13 91.5571 383.342 94.7396 380.16C97.9221 376.977 99.71 372.661 99.71 368.16Z" fill="#0055A5"/>
<path d="M691.37 317.07C694.137 325.723 694.277 334.73 691.79 344.09C690.5 348.94 686.46 353.42 680.93 352.45C675.13 351.43 672.72 345 671.94 339.73C670.78 331.84 670.34 313.51 679.26 310.37C684.95 308.36 689.71 311.87 691.37 317.07Z" fill="white"/>
<path d="M970.63 337.67C969.87 330.2 969.59 313.88 978.27 310.36C985.2 307.54 989.86 313.91 991.21 319.67C992.857 326.717 992.953 333.983 991.5 341.47C990.36 347.36 986.1 354.64 978.75 352.16C973.13 350.26 971.19 343.11 970.63 337.67Z" fill="white"/>
<path d="M730.99 311.01C730.99 310.93 731.022 310.854 731.078 310.798C731.134 310.742 731.21 310.71 731.29 310.71L736.48 310.7C737.443 310.699 738.396 310.87 739.286 311.206C740.176 311.541 740.985 312.034 741.667 312.655C742.348 313.276 742.889 314.014 743.259 314.827C743.628 315.639 743.819 316.51 743.82 317.39V319.71C743.822 321.487 743.052 323.192 741.68 324.45C740.307 325.708 738.444 326.417 736.5 326.42L731.31 326.43C731.23 326.43 731.154 326.398 731.098 326.342C731.042 326.286 731.01 326.21 731.01 326.13L730.99 311.01Z" fill="white"/>
<path d="M861.39 313.62L867.53 337.19C867.542 337.239 867.543 337.289 867.533 337.338C867.522 337.387 867.501 337.434 867.47 337.473C867.439 337.513 867.4 337.545 867.355 337.567C867.31 337.589 867.26 337.6 867.21 337.6L854.18 337.56C854.129 337.56 854.078 337.549 854.032 337.526C853.986 337.504 853.946 337.471 853.915 337.43C853.884 337.389 853.863 337.342 853.853 337.292C853.844 337.241 853.846 337.189 853.86 337.14L860.75 313.61C860.769 313.539 860.811 313.476 860.87 313.432C860.929 313.388 861 313.364 861.074 313.366C861.147 313.367 861.218 313.392 861.276 313.438C861.333 313.485 861.373 313.548 861.39 313.62Z" fill="white"/>
<path d="M253.3 383.01C249.5 383.89 245.48 384.08 241.24 383.58C241.287 383.713 241.283 383.59 241.23 383.21L253.3 383.01Z" fill="#B1B3B3"/>
<path d="M651.85 531.76C648.9 555.98 631.77 573.13 608.47 578.91C585.11 584.71 559.71 580.7 536.24 573.42C535.907 573.313 535.757 573.087 535.79 572.74L539.04 539.47C539.045 539.403 539.066 539.338 539.101 539.281C539.137 539.224 539.186 539.176 539.244 539.143C539.303 539.109 539.368 539.09 539.436 539.088C539.503 539.086 539.57 539.1 539.63 539.13C554.2 546.23 569.83 550.99 585.75 550.33C597.23 549.85 607.7 544.53 610 532.81C611.73 523.98 608.01 517.39 601.83 511.82C592.59 503.48 582.48 498.67 570.23 492.47C562.11 488.36 553.73 482.96 547.21 476.89C535.1 465.63 532.37 448.35 534.41 432.34C539.19 394.84 573.22 382.17 606.52 384.05C618.033 384.697 629.707 386.727 641.54 390.14C641.663 390.176 641.769 390.253 641.842 390.356C641.915 390.46 641.949 390.585 641.94 390.71L639.47 424.29C639.465 424.341 639.448 424.389 639.42 424.432C639.393 424.474 639.356 424.51 639.312 424.535C639.268 424.561 639.218 424.575 639.168 424.578C639.117 424.58 639.066 424.571 639.02 424.55C625.09 418.34 608.23 413.93 593.24 416.41C582.55 418.18 574.84 424.9 575.5 436.65C576.07 446.67 583.16 452.52 591.27 457.05C596.51 459.983 601.92 462.78 607.5 465.44C619.573 471.207 629.483 477.33 637.23 483.81C651.24 495.53 653.96 514.51 651.85 531.76Z" fill="#0055A5"/>
<path d="M934.11 483.74C947.97 487.3 952.56 499.88 956.55 512.08C963.51 533.367 970.64 555.337 977.94 577.99C978.053 578.337 977.927 578.51 977.56 578.51H933.28C933.171 578.51 933.064 578.475 932.978 578.41C932.891 578.345 932.828 578.254 932.8 578.15C927.293 558.597 922.08 540.023 917.16 522.43C915.453 516.317 913.347 511.38 910.84 507.62C905.41 499.47 895.31 499.87 886.48 500.28C886.16 500.293 886 500.46 886 500.78V578.01C886 578.35 885.83 578.52 885.49 578.52H843.49C843.143 578.52 842.97 578.343 842.97 577.99V387.8C842.97 387.46 843.137 387.29 843.47 387.29C862.943 387.263 883.54 387.21 905.26 387.13C917.48 387.09 929.057 389.023 939.99 392.93C962.97 401.14 970.82 421.65 968.69 444.31C966.73 465.13 953.8 478.1 934.11 483.2C933.41 483.38 933.41 483.56 934.11 483.74ZM921.54 427.13C914.42 417.79 896.6 419.04 886.38 419.17C886.127 419.17 886 419.297 886 419.55V467.7C886 468.02 886.16 468.187 886.48 468.2C901.03 468.68 922.38 469.62 925.5 450.6C926.69 443.31 926.24 433.28 921.54 427.13Z" fill="#0055A5"/>
<path d="M710.94 536.2L699.54 578.23C699.518 578.311 699.47 578.382 699.403 578.433C699.336 578.484 699.254 578.511 699.17 578.51H657.33C657.27 578.51 657.211 578.496 657.157 578.468C657.104 578.441 657.057 578.401 657.022 578.352C656.987 578.303 656.964 578.247 656.955 578.187C656.946 578.128 656.951 578.067 656.97 578.01L718.89 387.52C718.916 387.443 718.966 387.376 719.032 387.329C719.099 387.282 719.179 387.258 719.26 387.26H769.44C769.521 387.261 769.6 387.287 769.664 387.336C769.729 387.385 769.777 387.453 769.8 387.53L828.92 578.02C828.937 578.077 828.941 578.138 828.93 578.197C828.92 578.256 828.896 578.311 828.86 578.359C828.824 578.407 828.777 578.445 828.723 578.472C828.669 578.498 828.61 578.511 828.55 578.51H783.88C783.798 578.509 783.718 578.48 783.653 578.43C783.588 578.38 783.542 578.309 783.52 578.23L772.63 536.2C772.608 536.121 772.562 536.05 772.497 536C772.432 535.95 772.352 535.921 772.27 535.92H711.31C711.226 535.919 711.144 535.946 711.077 535.997C711.01 536.048 710.962 536.119 710.94 536.2ZM720.95 502.01C720.803 502.503 720.99 502.75 721.51 502.75H763.56C763.601 502.75 763.642 502.74 763.679 502.722C763.716 502.704 763.749 502.677 763.774 502.644C763.799 502.611 763.816 502.573 763.824 502.532C763.832 502.492 763.831 502.45 763.82 502.41L743.94 426.22C743.72 425.38 743.487 425.377 743.24 426.21L720.95 502.01Z" fill="#0055A5"/>
<path d="M1040.62 543.77H1102.55C1102.6 543.77 1102.65 543.78 1102.69 543.798C1102.74 543.817 1102.78 543.844 1102.81 543.878C1102.85 543.913 1102.87 543.954 1102.89 543.998C1102.91 544.043 1102.92 544.091 1102.92 544.14L1102.93 578.14C1102.93 578.238 1102.89 578.332 1102.82 578.402C1102.75 578.471 1102.66 578.51 1102.56 578.51L996.71 578.52C996.612 578.52 996.518 578.481 996.448 578.412C996.379 578.342 996.34 578.248 996.34 578.15V387.63C996.34 387.532 996.379 387.438 996.448 387.368C996.518 387.299 996.612 387.26 996.71 387.26H1039.88C1039.98 387.26 1040.07 387.299 1040.14 387.368C1040.21 387.438 1040.25 387.532 1040.25 387.63V543.4C1040.25 543.498 1040.29 543.592 1040.36 543.662C1040.43 543.731 1040.52 543.77 1040.62 543.77Z" fill="#0055A5"/>
<path d="M240.72 421.96C240.867 422.373 240.937 422.803 240.93 423.25C240.917 429.13 240.97 434.047 241.09 438C241.11 438.813 240.993 439.407 240.74 439.78C240.587 439.9 240.423 439.96 240.25 439.96C212.65 439.993 185.053 440.003 157.46 439.99C155.353 439.99 153.753 439.74 152.66 439.24C145.38 435.91 145.7 425.05 153.24 422.48C154.633 422.007 156.683 421.77 159.39 421.77C186.43 421.757 213.217 421.76 239.75 421.78C240.083 421.78 240.407 421.84 240.72 421.96Z" fill="#0055A5"/>
<path d="M209.47 458.75H124.79C119.853 458.75 115.85 462.753 115.85 467.69V468.05C115.85 472.987 119.853 476.99 124.79 476.99H209.47C214.407 476.99 218.41 472.987 218.41 468.05V467.69C218.41 462.753 214.407 458.75 209.47 458.75Z" fill="#0055A5"/>
<path d="M240.95 495.72L240.92 513.77C215.247 513.81 189.603 513.807 163.99 513.76C160.857 513.753 158.633 513.41 157.32 512.73C151.12 509.53 151.71 500.66 157.26 497C158.56 496.14 160.85 495.71 164.13 495.71C189.557 495.683 215.163 495.687 240.95 495.72Z" fill="#0055A5"/>
<path d="M240.9 520.64L240.76 539.17C235.053 541.55 231.567 545.327 230.3 550.5C227.967 560.027 231.513 566.98 240.94 571.36L240.92 589.95C228.64 587.543 219.903 580.893 214.71 570C210.85 561.92 210.42 551.81 213.54 543.32C217.75 531.86 228.07 522.26 240.9 520.64Z" fill="#0055A5"/>
<path d="M737.95 680.11C737.95 679.954 738.012 679.803 738.123 679.693C738.233 679.582 738.384 679.52 738.54 679.52L742.89 679.51C743.786 679.509 744.673 679.671 745.501 679.989C746.329 680.307 747.082 680.774 747.716 681.362C748.35 681.951 748.853 682.651 749.197 683.421C749.541 684.191 749.719 685.016 749.72 685.85V687.57C749.722 689.254 749.006 690.87 747.729 692.063C746.452 693.255 744.719 693.927 742.91 693.93L738.56 693.94C738.404 693.94 738.253 693.878 738.143 693.767C738.032 693.657 737.97 693.506 737.97 693.35L737.95 680.11Z" fill="white"/>
<path d="M1014 679.97C1014 679.921 1014.01 679.873 1014.03 679.828C1014.05 679.784 1014.07 679.743 1014.11 679.708C1014.14 679.674 1014.18 679.647 1014.23 679.628C1014.27 679.61 1014.32 679.6 1014.37 679.6L1018.88 679.59C1019.78 679.589 1020.66 679.748 1021.49 680.06C1022.32 680.372 1023.07 680.83 1023.71 681.407C1024.34 681.985 1024.84 682.671 1025.19 683.426C1025.53 684.182 1025.71 684.992 1025.71 685.81V687.67C1025.71 689.322 1025 690.908 1023.72 692.078C1022.44 693.248 1020.71 693.907 1018.9 693.91L1014.39 693.92C1014.29 693.92 1014.2 693.881 1014.13 693.812C1014.06 693.742 1014.02 693.648 1014.02 693.55L1014 679.97Z" fill="white"/>
<path d="M676.9 703.51L683.09 682.25C683.107 682.184 683.146 682.125 683.2 682.083C683.255 682.041 683.321 682.018 683.39 682.018C683.459 682.018 683.525 682.041 683.58 682.083C683.634 682.125 683.673 682.184 683.69 682.25L689.36 703.67C689.372 703.716 689.374 703.764 689.365 703.811C689.355 703.857 689.335 703.901 689.306 703.939C689.277 703.977 689.24 704.007 689.197 704.028C689.155 704.049 689.108 704.06 689.06 704.06L677.2 703.91C677.151 703.911 677.103 703.9 677.06 703.878C677.016 703.857 676.978 703.825 676.949 703.786C676.919 703.747 676.9 703.702 676.891 703.654C676.883 703.606 676.886 703.557 676.9 703.51Z" fill="white"/>
</g>
<defs>
<clipPath id="clip0_0_1">
<rect width="1207" height="730" fill="white"/>
</clipPath>
</defs>
</svg>
