<?xml version="1.0" encoding="UTF-8"?>
<svg width="300px" height="63px" viewBox="0 0 300 63" version="1.1" xmlns="http://www.w3.org/2000/svg" xmlns:xlink="http://www.w3.org/1999/xlink">
    <!-- Generator: Sketch 50 (54983) - http://www.bohemiancoding.com/sketch -->
    <title>logo/hidubai</title>
    <desc>Created with Sketch.</desc>
    <defs></defs>
    <g id="logo/hidubai" stroke="none" stroke-width="1" fill="none" fill-rule="evenodd">
        <g id="hidubai">
            <path d="M294.250871,18.2926829 C296.848955,18.2926829 298.954704,20.3984321 298.954704,22.9965157 L298.954704,48.6062718 C298.954704,56.6885017 292.402787,63.2404181 284.320557,63.2404181 C279.237805,63.2404181 274.761847,60.6480836 272.138153,56.7146341 C267.995122,60.7505226 262.338502,63.2404181 256.097561,63.2404181 C249.85662,63.2404181 244.2,60.7505226 240.056969,56.7146341 C237.433275,60.6480836 232.957317,63.2404181 227.874564,63.2404181 C222.791812,63.2404181 218.315854,60.6480836 215.69216,56.7146341 C211.549129,60.7505226 205.892509,63.2404181 199.651568,63.2404181 C193.410627,63.2404181 187.754007,60.7505226 183.610976,56.7146341 C180.987282,60.6480836 176.511324,63.2404181 171.428571,63.2404181 C166.816202,63.2404181 162.70453,61.1043554 160.0223,57.769338 C156.459408,61.1571429 151.645296,63.2404181 146.341463,63.2404181 C141.037631,63.2404181 136.223519,61.1571429 132.660627,57.769338 C129.978397,61.1043554 125.866725,63.2404181 121.254355,63.2404181 C116.171603,63.2404181 111.695645,60.6480836 109.071951,56.7146341 C104.92892,60.7505226 99.2722997,63.2404181 93.0313589,63.2404181 C80.3304878,63.2404181 70.0348432,52.9447735 70.0348432,40.2439024 C70.0348432,27.5430314 80.3304878,17.2473868 93.0313589,17.2473868 C98.1162021,17.2473868 102.812718,18.9010453 106.620209,21.6945993 L106.620209,5.22648084 C106.620209,2.62839721 108.725958,0.522648084 111.324042,0.522648084 C113.922125,0.522648084 116.027875,2.62839721 116.027875,5.22648084 L116.027875,48.6062718 C116.027875,51.4928571 118.368293,53.8327526 121.254355,53.8327526 C124.140418,53.8327526 126.480836,51.4928571 126.480836,48.6062718 L126.480836,22.9965157 C126.480836,20.3984321 128.586585,18.2926829 131.184669,18.2926829 C133.782753,18.2926829 135.888502,20.3984321 135.888502,22.9965157 L135.888502,43.3797909 C135.888502,49.1529617 140.568293,53.8327526 146.341463,53.8327526 C152.114634,53.8327526 156.794425,49.1529617 156.794425,43.3797909 L156.794425,22.9965157 C156.794425,20.3984321 158.900174,18.2926829 161.498258,18.2926829 C164.096341,18.2926829 166.202091,20.3984321 166.202091,22.9965157 L166.202091,48.6062718 C166.202091,51.4928571 168.542509,53.8327526 171.428571,53.8327526 C174.314634,53.8327526 176.655052,51.4928571 176.655052,48.6062718 L176.655052,5.22648084 C176.655052,2.62839721 178.760801,0.522648084 181.358885,0.522648084 C183.956969,0.522648084 186.062718,2.62839721 186.062718,5.22648084 L186.062718,21.6945993 C189.870209,18.9010453 194.566725,17.2473868 199.651568,17.2473868 C212.352439,17.2473868 222.648084,27.5430314 222.648084,40.2439024 L222.648084,48.6062718 C222.648084,51.4928571 224.988502,53.8327526 227.874564,53.8327526 C230.760627,53.8327526 233.101045,51.4928571 233.101045,48.6062718 L233.101045,40.2439024 C233.101045,27.5430314 243.39669,17.2473868 256.097561,17.2473868 C261.251394,17.2473868 266.009582,18.9433798 269.844251,21.8069686 C270.372125,19.7858885 272.204007,18.2926829 274.390244,18.2926829 C276.988328,18.2926829 279.094077,20.3984321 279.094077,22.9965157 L279.094077,48.6062718 C279.094077,51.4928571 281.434495,53.8327526 284.320557,53.8327526 C287.20662,53.8327526 289.547038,51.4928571 289.547038,48.6062718 L289.547038,22.9965157 C289.547038,20.3984321 291.652787,18.2926829 294.250871,18.2926829 Z M256.097561,53.8327526 C263.602265,53.8327526 269.686411,47.7486063 269.686411,40.2439024 C269.686411,32.7391986 263.602265,26.6550523 256.097561,26.6550523 C248.592857,26.6550523 242.508711,32.7391986 242.508711,40.2439024 C242.508711,47.7486063 248.592857,53.8327526 256.097561,53.8327526 Z M199.651568,53.8327526 C207.156272,53.8327526 213.240418,47.7486063 213.240418,40.2439024 C213.240418,32.7391986 207.156272,26.6550523 199.651568,26.6550523 C192.146864,26.6550523 186.062718,32.7391986 186.062718,40.2439024 C186.062718,47.7486063 192.146864,53.8327526 199.651568,53.8327526 Z M93.0313589,53.8327526 C100.536063,53.8327526 106.620209,47.7486063 106.620209,40.2439024 C106.620209,32.7391986 100.536063,26.6550523 93.0313589,26.6550523 C85.5266551,26.6550523 79.4425087,32.7391986 79.4425087,40.2439024 C79.4425087,47.7486063 85.5266551,53.8327526 93.0313589,53.8327526 Z M294.250871,11.4982578 C291.075784,11.4982578 288.501742,8.92421603 288.501742,5.74912892 C288.501742,2.57404181 291.075784,0 294.250871,0 C297.425958,0 300,2.57404181 300,5.74912892 C300,8.92421603 297.425958,11.4982578 294.250871,11.4982578 Z" id="dubai" fill="#00C1BC"></path>
            <path d="M54.8780488,11.4982578 C51.7029617,11.4982578 49.1289199,8.92421603 49.1289199,5.74912892 C49.1289199,2.57404181 51.7029617,0 54.8780488,0 C58.0531359,0 60.6271777,2.57404181 60.6271777,5.74912892 C60.6271777,8.92421603 58.0531359,11.4982578 54.8780488,11.4982578 Z M54.8780488,18.2926829 C57.4761324,18.2926829 59.5818815,20.3984321 59.5818815,22.9965157 L59.5818815,48.6062718 C59.5818815,56.6885017 53.0299652,63.2404181 44.9477352,63.2404181 C37.3954704,63.2404181 31.180662,57.5189895 30.3982578,50.174216 L30.3135889,50.174216 L30.3135889,37.1080139 C30.3135889,31.3348432 25.6337979,26.6550523 19.8606272,26.6550523 C14.0874564,26.6550523 9.40766551,31.3348432 9.40766551,37.1080139 L9.40766551,57.4912892 C9.40766551,60.0893728 7.30191638,62.195122 4.70383275,62.195122 C2.10574913,62.195122 0,60.0893728 0,57.4912892 L0,5.22648084 C0,2.62839721 2.10574913,0.522648084 4.70383275,0.522648084 C7.30191638,0.522648084 9.40766551,2.62839721 9.40766551,5.22648084 L9.40766551,20.221777 C12.4447735,18.3381533 16.0243902,17.2473868 19.8606272,17.2473868 C30.8289199,17.2473868 39.7212544,26.1391986 39.7212544,37.1080139 L39.7212544,48.6062718 C39.7212544,51.4928571 42.0616725,53.8327526 44.9477352,53.8327526 C47.8337979,53.8327526 50.174216,51.4928571 50.174216,48.6062718 L50.174216,22.9965157 C50.174216,20.3984321 52.2799652,18.2926829 54.8780488,18.2926829 Z" id="hi" fill="#1A7BA1"></path>
        </g>
    </g>
</svg>